# xmcd
#
# Track frame offsets:
#	150
#	15305
#	26664
#	42664
#	57569
#	70137
#	83192
#	90903
#	103554
#	120263
#
# Disc length: 1685 seconds
#
# Revision: 0
# Processed by: cddbd v1.5.1PL2 Copyright (c) Steve Scherf et al.
# Submitted via: dBpowerAMP V4.0
#
DISCID=7406930a
DTITLE=Boots Randolph - A Christmas Holiday
DYEAR=1900
DGENRE=Country Christmas
TTITLE0=The Christmas Song
TTITLE1=O Come All Ye Faithful
TTITLE2=White Christmas
TTITLE3=Have Yourself A Merry Little Christmas
TTITLE4=What Child Is This
TTITLE5=Winter Wonderland
TTITLE6=Joy To The World
TTITLE7=Silver Bells
TTITLE8=It Came Upon A Midnight Clear
TTITLE9=Jingle Bells
EXTD=
EXTT0=
EXTT1=
EXTT2=
EXTT3=
EXTT4=
EXTT5=
EXTT6=
EXTT7=
EXTT8=
EXTT9=
PLAYORDER=
